<svg width="22" height="22" viewBox="0 0 22 22" fill="none" xmlns="http://www.w3.org/2000/svg">
<path fill-rule="evenodd" clip-rule="evenodd" d="M17 1.8H5C3.23269 1.8 1.8 3.23269 1.8 5V17C1.8 18.7673 3.23269 20.2 5 20.2H17C18.7673 20.2 20.2 18.7673 20.2 17V5C20.2 3.23269 18.7673 1.8 17 1.8ZM5 0C2.23858 0 0 2.23858 0 5V17C0 19.7614 2.23858 22 5 22H17C19.7614 22 22 19.7614 22 17V5C22 2.23858 19.7614 0 17 0H5Z" fill="#C2C2C2"/>
<line x1="0.880005" y1="6.13998" x2="21.12" y2="6.13998" stroke="#C2C2C2" stroke-width="1.8"/>
<line x1="8.46571" y1="6.13096" x2="4.6659" y2="0.704282" stroke="#C2C2C2" stroke-width="1.8"/>
<line x1="15.4476" y1="6.14171" x2="11.5898" y2="0.632247" stroke="#C2C2C2" stroke-width="1.8"/>
<path d="M14.18 12.974C14.8467 13.3589 14.8467 14.3211 14.18 14.706L9.91999 17.1655C9.25332 17.5504 8.41999 17.0693 8.41999 16.2995L8.41999 11.3805C8.41999 10.6107 9.25333 10.1296 9.91999 10.5145L14.18 12.974Z" fill="#C2C2C2"/>
</svg>
